HIERARCHY
ROOT Hips
{
  OFFSET 0 0 0
  CHANNELS 6 Xposition Yposition Zposition Zrotation Yrotation Xrotation
  JOINT LeftThigh
  {
    OFFSET 8.409438 0 -5.917753
    CHANNELS 3 Zrotation Yrotation Xrotation
    JOINT LeftLeg
    {
      OFFSET 0 0 -42.358652
      CHANNELS 3 Zrotation Yrotation Xrotation
      JOINT LeftFoot
      {
        OFFSET 0 0 -39.357303
        CHANNELS 3 Zrotation Yrotation Xrotation
      }
    }
  }
  JOINT RightThigh
  {
    OFFSET -8.409438 0 -5.917753
    CHANNELS 3 Zrotation Yrotation Xrotation
    JOINT RightLeg
    {
      OFFSET 0 0 -42.358652
      CHANNELS 3 Zrotation Yrotation Xrotation
      JOINT RightFoot
      {
        OFFSET 0 0 -39.357303
        CHANNELS 3 Zrotation Yrotation Xrotation
      }
    }
  }
  JOINT SpineLow
  {
    OFFSET 0 0 4.719101
    CHANNELS 3 Zrotation Yrotation Xrotation
    JOINT SpineMid
    {
      OFFSET 0 0 12.899191
      CHANNELS 3 Zrotation Yrotation Xrotation
      JOINT Chest
      {
        OFFSET 0 0 12.899191
        CHANNELS 3 Zrotation Yrotation Xrotation
        JOINT LeftShoulder
        {
          OFFSET 7.550562 1.41573 9.438202
          CHANNELS 3 Zrotation Yrotation Xrotation
          JOINT LeftArm
          {
            OFFSET 9.155056 0 4.247191
            CHANNELS 3 Zrotation Yrotation Xrotation
            JOINT LeftForearm
            {
              OFFSET 0 0 25.771955
              CHANNELS 3 Zrotation Yrotation Xrotation
              JOINT LeftHand
              {
                OFFSET 0 0 25.197169
                CHANNELS 3 Zrotation Yrotation Xrotation
              }
            }
          }
        }
        JOINT RightShoulder
        {
          OFFSET -7.550562 1.41573 9.438202
          CHANNELS 3 Zrotation Yrotation Xrotation
          JOINT RightArm
          {
            OFFSET -9.155056 0 4.247191
            CHANNELS 3 Zrotation Yrotation Xrotation
            JOINT RightForearm
            {
              OFFSET 0 0 -25.771955
              CHANNELS 3 Zrotation Yrotation Xrotation
              JOINT RightHand
              {
                OFFSET 0 0 -25.197169
                CHANNELS 3 Zrotation Yrotation Xrotation
              }
            }
          }
        }
        JOINT Neck
        {
          OFFSET 0 0 15.101124
          CHANNELS 3 Zrotation Yrotation Xrotation
          JOINT Head
          {
            OFFSET 0 0 11.325843
            CHANNELS 3 Zrotation Yrotation Xrotation
            End Site
            {
              OFFSET 0 0 14.157303
            }
          }
        }
      }
    }
  }
}
MOTION
Frames: 8
Frame Time: 0.0
0.0  89.887642  0.0  3.832547  26.305421  -85.920343  -5.308987  -15.787725  -21.656775  -15.60367  11.452928  25.430066  -5.179286  -3.514458  1.042402  -27.840506  13.776249  -22.970679  -13.700188  12.206814  33.708115  -0.223644  3.576394  -2.273732  -1.646221  1.075829  -0.094037  -4.506685  2.932695  -0.33035  -4.506685  2.932695  -0.33035  3.598579  13.54948  17.540212  137.718906  49.428773  -159.200017  -30.11982  0.314885  32.372723  79.475213  -12.190891  21.866691  -6.709339  -13.039553  20.925587  86.572731  33.817342  40.817993  5.18375  5.76395  -46.343203  84.518319  8.734131  -27.846982  -14.229067  -2.025164  1.555895  -10.665617  -1.556116  1.120338  
0.0  89.887642  0.0  3.359338  26.079953  -85.600889  -5.646113  -16.773559  -23.313036  -14.43756  12.663058  27.365424  -4.663945  -3.549757  0.913027  -25.974476  12.786114  -23.836134  -13.490414  13.042702  35.300939  -0.467164  4.036632  -2.040919  -1.502441  1.031198  -0.074938  -4.112253  2.812764  -0.268971  -4.112253  2.812764  -0.268971  3.623954  13.18405  17.33104  137.42481  49.562984  -159.134582  -30.51578  0.819296  31.936442  79.278622  -12.112593  22.156042  -6.49901  -13.015391  20.879936  87.312388  34.738882  40.687239  7.523458  9.244702  -44.013357  84.959883  9.610753  -26.41923  -14.685211  -2.389411  1.015388  -11.008377  -1.81771  0.704449  
0.0  89.887642  0.0  2.657374  25.133174  -85.678678  -5.173751  -17.54427  -24.427463  -13.235192  13.253371  29.200443  -4.297486  -3.595447  0.771243  -23.183459  11.77617  -24.533506  -13.234616  13.756192  36.990469  -0.497783  4.389127  -1.871503  -1.269263  0.962415  -0.026306  -3.472137  2.628449  -0.122464  -3.472137  2.628449  -0.122464  3.679377  12.923742  17.046019  137.113557  49.58375  -159.227235  -30.710718  1.125404  31.752759  79.210778  -11.937272  22.322462  -6.006919  -13.024478  20.904621  87.934968  35.776212  40.676882  9.974611  12.303048  -41.734472  85.51511  10.52945  -25.261394  -15.087951  -2.683157  0.463998  -11.311863  -2.025289  0.281831  
0.0  89.887642  0.0  1.917186  24.090622  -86.135545  -3.636298  -17.803783  -24.880342  -13.064435  13.371171  30.568856  -4.526874  -3.720521  0.540762  -21.006007  10.946001  -25.135001  -12.201681  13.79588  38.584181  -0.716653  4.643427  -1.617277  -1.051754  0.887277  0.057765  -2.873934  2.427268  0.119315  -2.873934  2.427268  0.119315  3.809608  12.749537  16.6971  136.859944  49.428725  -159.487246  -30.873363  1.240749  31.724962  79.192218  -11.72821  22.50866  -5.259044  -13.120779  20.980005  88.744874  36.673133  40.918011  12.507258  14.995381  -39.438374  85.932187  11.437989  -24.372306  -15.287174  -2.921756  0.029074  -11.462752  -2.193672  -0.051404  
0.0  89.887642  0.0  1.29041  23.459731  -86.349391  -1.598756  -17.820178  -25.124057  -14.073223  13.425549  31.235685  -5.288026  -3.855001  0.309053  -19.863986  9.991771  -25.702545  -11.192283  13.580055  39.543217  -1.086263  4.985079  -1.360125  -0.945125  0.80489  0.083437  -2.581504  2.202959  0.196633  -2.581504  2.202959  0.196633  3.992216  12.694547  16.274966  136.770268  49.039665  -159.869298  -30.798458  1.524215  32.079253  79.867358  -12.237549  24.494076  -4.142958  -13.283707  21.264134  89.804757  37.635872  41.520124  14.791818  17.042924  -37.048314  86.318012  12.503859  -23.775366  -15.26453  -3.009409  -0.253131  -11.447009  -2.2524  -0.265254  
0.0  89.887642  0.0  0.758779  22.071133  -86.55487  -0.091215  -18.469436  -24.646801  -14.358645  13.750844  31.39481  -6.194587  -3.919325  0.112051  -18.696723  9.18856  -26.325272  -10.334786  13.206121  40.075471  -1.390251  5.311806  -1.034779  -0.740997  0.727509  0.075449  -2.023733  1.990668  0.183967  -2.023733  1.990668  0.183967  4.101041  12.834144  15.855188  136.913235  48.552331  -160.401108  -31.376107  1.779139  32.237355  79.758981  -11.690053  24.58884  -2.723736  -13.607379  21.980502  91.379692  38.975682  42.504932  16.784582  17.976988  -34.435777  86.487619  13.463462  -23.19801  -15.096827  -2.922043  -0.312193  -11.321658  -2.185401  -0.306579  
0.0  89.887642  0.0  0.446139  19.022952  -86.791888  0.808109  -19.770738  -23.765606  -13.247277  14.479765  31.525846  -6.663653  -3.8234  0.143944  -17.348883  8.467649  -27.21687  -8.802898  12.608557  40.351798  -1.430082  5.685926  -0.722313  -0.247756  0.700234  0.024149  -0.67669  1.914243  0.058848  -0.67669  1.914243  0.058847  3.787153  13.141656  15.497818  137.075347  47.995833  -161.290347  -32.5599  2.235338  32.374109  79.833894  -10.766237  24.437818  -1.493334  -14.239356  23.337664  93.330124  40.684678  43.711446  18.665409  17.766781  -31.264073  86.429501  14.215828  -22.505295  -14.980725  -2.672374  -0.010703  -11.23355  -2.005447  -0.07365  
0.0  89.887642  0.0  0.52634  14.214061  -87.254177  3.366236  -19.169562  -21.70023  -14.237652  14.179298  30.502163  -6.12793  -3.531774  0.420986  -15.042378  7.935135  -27.740986  -7.049478  12.239681  40.261311  -1.220473  5.87526  -0.590524  0.659592  0.787578  -0.006851  1.803292  2.15277  0.002761  1.803292  2.15277  0.002762  2.156284  13.42893  14.476355  136.858157  47.061095  -163.056634  -34.583982  2.756439  32.415893  80.257123  -9.10735  23.923499  -1.452588  -15.719326  24.961678  95.502557  42.671074  45.325637  21.114472  16.705846  -27.423166  86.095995  14.680988  -21.824519  -15.376137  -2.475588  0.706516  -11.527464  -1.87588  0.467814  
